<svg xmlns="http://www.w3.org/2000/svg" width="1200" height="900" viewBox="0 0 1200 900">
<rect width="1200" height="900" fill="#f7f0e8"/>
<rect x="36" y="36" width="1128" height="828" rx="54" fill="none" stroke="#24211d" stroke-opacity=".12" stroke-width="2"/>
<path d="M70 670 C280 560 390 790 590 680 S850 510 1120 640" fill="none" stroke="#b27b45" stroke-width="28" stroke-linecap="round" opacity=".14"/>
<circle cx="70" cy="90" r="3" fill="#b27b45" opacity=".24" /><circle cx="128" cy="112" r="4" fill="#b27b45" opacity=".24" /><circle cx="186" cy="134" r="5" fill="#b27b45" opacity=".24" /><circle cx="244" cy="156" r="6" fill="#b27b45" opacity=".24" /><circle cx="302" cy="90" r="3" fill="#b27b45" opacity=".24" /><circle cx="360" cy="112" r="4" fill="#b27b45" opacity=".24" /><circle cx="418" cy="134" r="5" fill="#b27b45" opacity=".24" /><circle cx="476" cy="156" r="6" fill="#b27b45" opacity=".24" /><circle cx="534" cy="90" r="3" fill="#b27b45" opacity=".24" /><circle cx="592" cy="112" r="4" fill="#b27b45" opacity=".24" />
<g transform="translate(72 104)"><rect width="205" height="42" rx="21" fill="#24211d" opacity=".92"/><text x="24" y="28" font-family="ui-monospace, SFMono-Regular, Menlo, monospace" font-size="18" fill="#f7f0e8" letter-spacing="2">LAYOUT</text></g>
<text x="72" y="405" font-family="-apple-system, BlinkMacSystemFont, 'Helvetica Neue', Arial, sans-serif" font-size="74" font-weight="700" fill="#24211d" letter-spacing="-4"><tspan x="72" dy="0">Asymmetric product bento gr</tspan><tspan x="72" dy="82">id</tspan></text>
<text x="76" y="565" font-family="ui-monospace, SFMono-Regular, Menlo, monospace" font-size="24" fill="#24211d" opacity=".55">Magic UI components</text>
<rect x="40" y="250" width="28" height="50" rx="10" fill="#b27b45" opacity="0.18" /><rect x="82" y="266" width="28" height="68" rx="10" fill="#b27b45" opacity="0.235" /><rect x="124" y="282" width="28" height="86" rx="10" fill="#b27b45" opacity="0.29" /><rect x="166" y="250" width="28" height="104" rx="10" fill="#b27b45" opacity="0.345" /><rect x="208" y="266" width="28" height="122" rx="10" fill="#b27b45" opacity="0.4" /><rect x="250" y="282" width="28" height="140" rx="10" fill="#b27b45" opacity="0.455" /><rect x="292" y="250" width="28" height="50" rx="10" fill="#b27b45" opacity="0.51" /><rect x="334" y="266" width="28" height="68" rx="10" fill="#b27b45" opacity="0.565" /><rect x="376" y="282" width="28" height="86" rx="10" fill="#b27b45" opacity="0.62" />
<circle cx="1008" cy="188" r="78" fill="#b27b45" opacity=".12"/><circle cx="1008" cy="188" r="36" fill="#b27b45" opacity=".28"/>
</svg>